<svg width="32" height="32" viewBox="0 0 32 32" fill="none" xmlns="http://www.w3.org/2000/svg">
<rect width="32" height="32" rx="16" fill="white"/>
<path d="M6.22334 16.6875C6.22334 14.5625 6.64834 12.7125 7.49834 11.1375C8.34834 9.5375 9.52334 8.3 11.0233 7.425C12.5483 6.55 14.2858 6.1125 16.2358 6.1125C18.7608 6.1125 20.8358 6.725 22.4608 7.95C24.1108 9.175 25.1983 10.875 25.7233 13.05H22.0483C21.6983 11.8 21.0108 10.8125 19.9858 10.0875C18.9858 9.3625 17.7358 9 16.2358 9C14.2858 9 12.7108 9.675 11.5108 11.025C10.3108 12.35 9.71084 14.2375 9.71084 16.6875C9.71084 19.1625 10.3108 21.075 11.5108 22.425C12.7108 23.775 14.2858 24.45 16.2358 24.45C17.7358 24.45 18.9858 24.1 19.9858 23.4C20.9858 22.7 21.6733 21.7 22.0483 20.4H25.7233C25.1733 22.5 24.0733 24.1875 22.4233 25.4625C20.7733 26.7125 18.7108 27.3375 16.2358 27.3375C14.2858 27.3375 12.5483 26.9 11.0233 26.025C9.52334 25.15 8.34834 23.9125 7.49834 22.3125C6.64834 20.7125 6.22334 18.8375 6.22334 16.6875Z" fill="#5FD3A3"/>
<path d="M7.49834 11.1375L8.48839 11.6718L8.49185 11.6653L7.49834 11.1375ZM11.0233 7.425L10.4634 6.44919L10.4565 6.45325L11.0233 7.425ZM22.4608 7.95L21.7836 8.84836L21.7902 8.85327L22.4608 7.95ZM25.7233 13.05V14.175H27.1522L26.8169 12.786L25.7233 13.05ZM22.0483 13.05L20.965 13.3533L21.1951 14.175H22.0483V13.05ZM19.9858 10.0875L19.3255 10.9984L19.3362 11.006L19.9858 10.0875ZM11.5108 11.025L12.3447 11.7802L12.3517 11.7724L11.5108 11.025ZM11.5108 22.425L12.3517 21.6776L12.3517 21.6776L11.5108 22.425ZM19.9858 23.4L20.631 24.3216L20.631 24.3216L19.9858 23.4ZM22.0483 20.4V19.275H21.202L20.9674 20.0882L22.0483 20.4ZM25.7233 20.4L26.8116 20.685L27.1809 19.275H25.7233V20.4ZM22.4233 25.4625L23.1027 26.3593L23.1112 26.3527L22.4233 25.4625ZM11.0233 26.025L10.4565 26.9968L10.4635 27.0008L11.0233 26.025ZM7.49834 22.3125L6.50483 22.8403L6.50483 22.8403L7.49834 22.3125ZM7.34834 16.6875C7.34834 14.7141 7.74217 13.0545 8.48836 11.6718L6.50832 10.6032C5.55451 12.3705 5.09834 14.4109 5.09834 16.6875H7.34834ZM8.49185 11.6653C9.24814 10.2417 10.279 9.16163 11.5902 8.39675L10.4565 6.45325C8.76771 7.43837 7.44854 8.83331 6.50483 10.6097L8.49185 11.6653ZM11.5832 8.40079C12.9197 7.63393 14.4603 7.2375 16.2358 7.2375V4.9875C14.1113 4.9875 12.1769 5.46607 10.4635 6.44921L11.5832 8.40079ZM16.2358 7.2375C18.5764 7.2375 20.3967 7.80282 21.7836 8.84834L23.138 7.05166C21.275 5.64718 18.9453 4.9875 16.2358 4.9875V7.2375ZM21.7902 8.85327C23.2094 9.90693 24.1607 11.3706 24.6297 13.314L26.8169 12.786C26.236 10.3794 25.0122 8.44307 23.1315 7.04673L21.7902 8.85327ZM25.7233 11.925H22.0483V14.175H25.7233V11.925ZM23.1317 12.7467C22.7146 11.2571 21.879 10.0486 20.6355 9.16903L19.3362 11.006C20.1427 11.5764 20.6821 12.3429 20.965 13.3533L23.1317 12.7467ZM20.6462 9.17669C19.416 8.28482 17.9211 7.875 16.2358 7.875V10.125C17.5506 10.125 18.5557 10.4402 19.3255 10.9983L20.6462 9.17669ZM16.2358 7.875C13.9933 7.875 12.1019 8.6667 10.67 10.2776L12.3517 11.7724C13.3198 10.6833 14.5784 10.125 16.2358 10.125V7.875ZM10.677 10.2698C9.22977 11.8678 8.58584 14.0626 8.58584 16.6875H10.8358C10.8358 14.4124 11.3919 12.8322 12.3447 11.7802L10.677 10.2698ZM8.58584 16.6875C8.58584 19.3355 9.22868 21.5509 10.67 23.1724L12.3517 21.6776C11.393 20.5991 10.8358 18.9895 10.8358 16.6875H8.58584ZM10.67 23.1724C12.1019 24.7833 13.9933 25.575 16.2358 25.575V23.325C14.5784 23.325 13.3198 22.7667 12.3517 21.6776L10.67 23.1724ZM16.2358 25.575C17.9132 25.575 19.4024 25.1817 20.631 24.3216L19.3407 22.4784C18.5693 23.0183 17.5585 23.325 16.2358 23.325V25.575ZM20.631 24.3216C21.8647 23.458 22.6912 22.2304 23.1293 20.7118L20.9674 20.0882C20.6555 21.1696 20.1069 21.942 19.3407 22.4784L20.631 24.3216ZM22.0483 21.525H25.7233V19.275H22.0483V21.525ZM24.635 20.115C24.1452 21.9852 23.1803 23.4558 21.7355 24.5723L23.1112 26.3527C24.9664 24.9192 26.2014 23.0148 26.8116 20.685L24.635 20.115ZM21.744 24.5658C20.3256 25.6403 18.515 26.2125 16.2358 26.2125V28.4625C18.9066 28.4625 21.2211 27.7847 23.1027 26.3592L21.744 24.5658ZM16.2358 26.2125C14.4603 26.2125 12.9197 25.8161 11.5832 25.0492L10.4635 27.0008C12.1769 27.9839 14.1113 28.4625 16.2358 28.4625V26.2125ZM11.5902 25.0532C10.279 24.2884 9.24814 23.2083 8.49185 21.7847L6.50483 22.8403C7.44854 24.6167 8.76771 26.0116 10.4565 26.9968L11.5902 25.0532ZM8.49185 21.7847C7.74295 20.375 7.34834 18.6877 7.34834 16.6875H5.09834C5.09834 18.9873 5.55373 21.05 6.50483 22.8403L8.49185 21.7847Z" fill="#5FD3A3"/>
<path fill-rule="evenodd" clip-rule="evenodd" d="M20.625 17.0625C20.625 19.8584 18.6942 22.125 16.3125 22.125C13.9308 22.125 12 19.8584 12 17.0625C12 14.2666 13.9308 12 16.3125 12C16.9466 12 17.5487 12.1607 18.091 12.4492C17.3885 12.6759 16.875 13.3963 16.875 14.25C16.875 15.2855 17.6305 16.125 18.5625 16.125C19.32 16.125 19.9609 15.5705 20.1743 14.8068C20.4628 15.486 20.625 16.252 20.625 17.0625ZM15.9375 16.125C16.2482 16.125 16.5 15.8732 16.5 15.5625C16.5 15.2518 16.2482 15 15.9375 15C15.6268 15 15.375 15.2518 15.375 15.5625C15.375 15.8732 15.6268 16.125 15.9375 16.125Z" fill="#D35F8F" fill-opacity="0.66"/>
<path d="M19.125 20.25C19.125 21.2855 17.9497 22.125 16.5 22.125C15.0503 22.125 13.875 21.2855 13.875 20.25C13.875 19.2145 15.0503 18.375 16.5 18.375C17.9497 18.375 19.125 19.2145 19.125 20.25Z" fill="#D35F8F" fill-opacity="0.66"/>
</svg>
