<svg width="175" height="100" viewBox="0 0 175 100" fill="none" xmlns="http://www.w3.org/2000/svg">
<path d="M19.9289 62.5C19.9289 56.8333 21.0622 51.9 23.3289 47.7C25.5956 43.4333 28.7289 40.1333 32.7289 37.8C36.7956 35.4667 41.4289 34.3 46.6289 34.3C53.3622 34.3 58.8956 35.9333 63.2289 39.2C67.6289 42.4667 70.5289 47 71.9289 52.8H62.1289C61.1956 49.4667 59.3622 46.8333 56.6289 44.9C53.9622 42.9667 50.6289 42 46.6289 42C41.4289 42 37.2289 43.8 34.0289 47.4C30.8289 50.9333 29.2289 55.9667 29.2289 62.5C29.2289 69.1 30.8289 74.2 34.0289 77.8C37.2289 81.4 41.4289 83.2 46.6289 83.2C50.6289 83.2 53.9622 82.2667 56.6289 80.4C59.2956 78.5333 61.1289 75.8667 62.1289 72.4H71.9289C70.4622 78 67.5289 82.5 63.1289 85.9C58.7289 89.2333 53.2289 90.9 46.6289 90.9C41.4289 90.9 36.7956 89.7333 32.7289 87.4C28.7289 85.0667 25.5956 81.7667 23.3289 77.5C21.0622 73.2333 19.9289 68.2333 19.9289 62.5Z" fill="#5FD3A3"/>
<path d="M23.3289 47.7L25.969 49.1248L25.9736 49.1161L25.9783 49.1075L23.3289 47.7ZM32.7289 37.8L31.2359 35.1979L31.2266 35.2032L31.2173 35.2087L32.7289 37.8ZM63.2289 39.2L61.423 41.5956L61.4318 41.6022L61.4406 41.6087L63.2289 39.2ZM71.9289 52.8V55.8H75.7392L74.8452 52.0961L71.9289 52.8ZM62.1289 52.8L59.24 53.6089L59.8535 55.8H62.1289V52.8ZM56.6289 44.9L54.868 47.3288L54.8822 47.3391L54.8965 47.3492L56.6289 44.9ZM34.0289 47.4L36.2525 49.4138L36.2619 49.4035L36.2711 49.3931L34.0289 47.4ZM34.0289 77.8L36.2711 75.8069L36.2711 75.8069L34.0289 77.8ZM56.6289 80.4L58.3493 82.8577L58.3493 82.8577L56.6289 80.4ZM62.1289 72.4V69.4H59.872L59.2464 71.5685L62.1289 72.4ZM71.9289 72.4L74.831 73.1601L75.8158 69.4H71.9289V72.4ZM63.1289 85.9L64.9405 88.2913L64.9519 88.2826L64.9633 88.2739L63.1289 85.9ZM32.7289 87.4L31.2173 89.9913L31.2266 89.9968L31.2359 90.0021L32.7289 87.4ZM23.3289 77.5L20.6796 78.9075L20.6796 78.9075L23.3289 77.5ZM22.9289 62.5C22.9289 57.2377 23.9791 52.8119 25.969 49.1248L20.6888 46.2752C18.1454 50.9881 16.9289 56.429 16.9289 62.5H22.9289ZM25.9783 49.1075C27.995 45.3112 30.7439 42.431 34.2405 40.3913L31.2173 35.2087C26.7139 37.8356 23.1961 41.5555 20.6796 46.2925L25.9783 49.1075ZM34.2219 40.4021C37.786 38.3571 41.8942 37.3 46.6289 37.3V31.3C40.9636 31.3 35.8052 32.5762 31.2359 35.1979L34.2219 40.4021ZM46.6289 37.3C52.8704 37.3 57.7246 38.8075 61.423 41.5956L65.0348 36.8044C60.0666 33.0591 53.8541 31.3 46.6289 31.3V37.3ZM61.4406 41.6087C65.2252 44.4185 67.7618 48.3217 69.0127 53.5039L74.8452 52.0961C73.296 45.6783 70.0327 40.5149 65.0172 36.7913L61.4406 41.6087ZM71.9289 49.8H62.1289V55.8H71.9289V49.8ZM65.0178 51.9911C63.9056 48.0188 61.6774 44.7963 58.3613 42.4507L54.8965 47.3492C57.0471 48.8704 58.4856 50.9145 59.24 53.6089L65.0178 51.9911ZM58.3898 42.4712C55.1094 40.0928 51.123 39 46.6289 39V45C50.1348 45 52.8151 45.8405 54.868 47.3288L58.3898 42.4712ZM46.6289 39C40.6488 39 35.6051 41.1112 31.7867 45.4069L36.2711 49.3931C38.8527 46.4888 42.209 45 46.6289 45V39ZM31.8053 45.3862C27.946 49.6474 26.2289 55.5003 26.2289 62.5H32.2289C32.2289 56.433 33.7118 52.2192 36.2525 49.4138L31.8053 45.3862ZM26.2289 62.5C26.2289 69.5612 27.9431 75.4691 31.7867 79.7931L36.2711 75.8069C33.7147 72.9309 32.2289 68.6388 32.2289 62.5H26.2289ZM31.7867 79.7931C35.6051 84.0888 40.6488 86.2 46.6289 86.2V80.2C42.209 80.2 38.8527 78.7112 36.2711 75.8069L31.7867 79.7931ZM46.6289 86.2C51.1018 86.2 55.0729 85.1511 58.3493 82.8577L54.9085 77.9423C52.8515 79.3822 50.156 80.2 46.6289 80.2V86.2ZM58.3493 82.8577C61.6393 80.5547 63.8432 77.2812 65.0114 73.2315L59.2464 71.5685C58.4146 74.4522 56.9518 76.512 54.9085 77.9423L58.3493 82.8577ZM62.1289 75.4H71.9289V69.4H62.1289V75.4ZM69.0268 71.6399C67.7206 76.6271 65.1475 80.5489 61.2946 83.5261L64.9633 88.2739C69.9103 84.4511 73.2039 79.3729 74.831 73.1601L69.0268 71.6399ZM61.3173 83.5087C57.5349 86.3742 52.7067 87.9 46.6289 87.9V93.9C53.7511 93.9 59.9229 92.0924 64.9405 88.2913L61.3173 83.5087ZM46.6289 87.9C41.8942 87.9 37.786 86.8429 34.2219 84.7979L31.2359 90.0021C35.8052 92.6238 40.9636 93.9 46.6289 93.9V87.9ZM34.2405 84.8087C30.7439 82.769 27.995 79.8888 25.9783 76.0925L20.6796 78.9075C23.1961 83.6445 26.7139 87.3644 31.2173 89.9913L34.2405 84.8087ZM25.9783 76.0925C23.9812 72.3334 22.9289 67.834 22.9289 62.5H16.9289C16.9289 68.6327 18.1433 74.1333 20.6796 78.9075L25.9783 76.0925Z" fill="#5FD3A3"/>
<path d="M104.38 34.18L90.7605 60.22V76H85.3005V60.22L71.6205 34.18H77.6805L88.0005 55.36L98.3205 34.18H104.38Z" fill="#5FD3A3"/>
<path d="M104.38 34.18L107.039 35.5704L109.335 31.18H104.38V34.18ZM90.7605 60.22L88.1021 58.8296L87.7605 59.4828V60.22H90.7605ZM90.7605 76V79H93.7605V76H90.7605ZM85.3005 76H82.3005V79H85.3005V76ZM85.3005 60.22H88.3005V59.4799L87.9563 58.8248L85.3005 60.22ZM71.6205 34.18V31.18H66.6556L68.9647 35.5752L71.6205 34.18ZM77.6805 34.18L80.3774 32.8659L79.5559 31.18H77.6805V34.18ZM88.0005 55.36L85.3036 56.6741L88.0005 62.209L90.6974 56.6741L88.0005 55.36ZM98.3205 34.18V31.18H96.4451L95.6236 32.8659L98.3205 34.18ZM101.722 32.7896L88.1021 58.8296L93.4188 61.6104L107.039 35.5704L101.722 32.7896ZM87.7605 60.22V76H93.7605V60.22H87.7605ZM90.7605 73H85.3005V79H90.7605V73ZM88.3005 76V60.22H82.3005V76H88.3005ZM87.9563 58.8248L74.2763 32.7848L68.9647 35.5752L82.6447 61.6152L87.9563 58.8248ZM71.6205 37.18H77.6805V31.18H71.6205V37.18ZM74.9836 35.4941L85.3036 56.6741L90.6974 54.0459L80.3774 32.8659L74.9836 35.4941ZM90.6974 56.6741L101.017 35.4941L95.6236 32.8659L85.3036 54.0459L90.6974 56.6741ZM98.3205 37.18H104.38V31.18H98.3205V37.18Z" fill="#5FD3A3"/>
<path d="M121.273 90.42C118.513 90.42 116.033 89.94 113.833 88.98C111.673 87.98 109.973 86.62 108.733 84.9C107.493 83.14 106.853 81.12 106.813 78.84H112.633C112.833 80.8 113.633 82.46 115.033 83.82C116.473 85.14 118.553 85.8 121.273 85.8C123.873 85.8 125.913 85.16 127.393 83.88C128.913 82.56 129.673 80.88 129.673 78.84C129.673 77.24 129.233 75.94 128.353 74.94C127.473 73.94 126.373 73.18 125.053 72.66C123.733 72.14 121.953 71.58 119.713 70.98C116.953 70.26 114.733 69.54 113.053 68.82C111.413 68.1 109.993 66.98 108.793 65.46C107.633 63.9 107.053 61.82 107.053 59.22C107.053 56.94 107.633 54.92 108.793 53.16C109.953 51.4 111.573 50.04 113.653 49.08C115.773 48.12 118.193 47.64 120.913 47.64C124.833 47.64 128.033 48.62 130.513 50.58C133.033 52.54 134.453 55.14 134.773 58.38H128.773C128.573 56.78 127.733 55.38 126.253 54.18C124.773 52.94 122.813 52.32 120.373 52.32C118.093 52.32 116.233 52.92 114.793 54.12C113.353 55.28 112.633 56.92 112.633 59.04C112.633 60.56 113.053 61.8 113.893 62.76C114.773 63.72 115.833 64.46 117.073 64.98C118.353 65.46 120.133 66.02 122.413 66.66C125.173 67.42 127.393 68.18 129.073 68.94C130.753 69.66 132.193 70.8 133.393 72.36C134.593 73.88 135.193 75.96 135.193 78.6C135.193 80.64 134.653 82.56 133.573 84.36C132.493 86.16 130.893 87.62 128.773 88.74C126.653 89.86 124.153 90.42 121.273 90.42Z" fill="#5FD3A3"/>
<path d="M113.833 88.98L112.572 91.7024L112.602 91.7163L112.633 91.7296L113.833 88.98ZM108.733 84.9L106.28 86.6279L106.29 86.6412L106.299 86.6544L108.733 84.9ZM106.813 78.84V75.84H103.759L103.813 78.8926L106.813 78.84ZM112.633 78.84L115.617 78.5355L115.342 75.84H112.633V78.84ZM115.033 83.82L112.942 85.9718L112.973 86.0021L113.005 86.0315L115.033 83.82ZM127.393 83.88L129.355 86.1491L129.36 86.1451L127.393 83.88ZM128.353 74.94L126.1 76.9219L126.1 76.9219L128.353 74.94ZM125.053 72.66L123.953 75.4512L123.953 75.4512L125.053 72.66ZM119.713 70.98L120.489 68.0822L120.479 68.0796L120.47 68.0771L119.713 70.98ZM113.053 68.82L111.847 71.5669L111.859 71.5722L111.871 71.5774L113.053 68.82ZM108.793 65.46L106.385 67.2501L106.411 67.2849L106.438 67.3189L108.793 65.46ZM108.793 53.16L111.297 54.8109L111.297 54.8109L108.793 53.16ZM113.653 49.08L112.415 46.3471L112.405 46.3516L112.395 46.3561L113.653 49.08ZM130.513 50.58L128.652 52.9337L128.662 52.9409L128.671 52.9481L130.513 50.58ZM134.773 58.38V61.38H138.083L137.758 58.0851L134.773 58.38ZM128.773 58.38L125.796 58.7521L126.124 61.38H128.773V58.38ZM126.253 54.18L124.326 56.4796L124.344 56.4951L124.363 56.5103L126.253 54.18ZM114.793 54.12L116.675 56.4563L116.694 56.4406L116.713 56.4247L114.793 54.12ZM113.893 62.76L111.635 64.7355L111.658 64.7616L111.681 64.7872L113.893 62.76ZM117.073 64.98L115.912 67.7466L115.965 67.7688L116.019 67.789L117.073 64.98ZM122.413 66.66L121.602 69.5484L121.609 69.5504L121.616 69.5523L122.413 66.66ZM129.073 68.94L127.836 71.6733L127.863 71.6857L127.891 71.6974L129.073 68.94ZM133.393 72.36L131.015 74.1891L131.026 74.2041L131.038 74.2189L133.393 72.36ZM133.573 84.36L136.145 85.9035L136.145 85.9035L133.573 84.36ZM128.773 88.74L127.371 86.0874L128.773 88.74ZM121.273 87.42C118.864 87.42 116.801 87.0023 115.032 86.2304L112.633 91.7296C115.264 92.8777 118.161 93.42 121.273 93.42V87.42ZM115.093 86.2576C113.342 85.4471 112.069 84.3982 111.166 83.1456L106.299 86.6544C107.876 88.8418 110.003 90.5129 112.572 91.7024L115.093 86.2576ZM111.185 83.1721C110.312 81.933 109.842 80.5043 109.812 78.7874L103.813 78.8926C103.863 81.7357 104.673 84.347 106.28 86.6279L111.185 83.1721ZM106.813 81.84H112.633V75.84H106.813V81.84ZM109.648 79.1445C109.919 81.799 111.031 84.1153 112.942 85.9718L117.123 81.6682C116.234 80.8047 115.746 79.801 115.617 78.5355L109.648 79.1445ZM113.005 86.0315C115.184 88.0282 118.098 88.8 121.273 88.8V82.8C119.007 82.8 117.762 82.2518 117.06 81.6085L113.005 86.0315ZM121.273 88.8C124.353 88.8 127.172 88.0368 129.355 86.1491L125.43 81.6109C124.653 82.2832 123.392 82.8 121.273 82.8V88.8ZM129.36 86.1451C131.546 84.2466 132.673 81.7357 132.673 78.84H126.673C126.673 80.0243 126.279 80.8734 125.426 81.6149L129.36 86.1451ZM132.673 78.84C132.673 76.6645 132.06 74.6114 130.605 72.9581L126.1 76.9219C126.406 77.2686 126.673 77.8155 126.673 78.84H132.673ZM130.605 72.9581C129.39 71.5776 127.886 70.5516 126.152 69.8688L123.953 75.4512C124.86 75.8084 125.555 76.3024 126.1 76.9219L130.605 72.9581ZM126.152 69.8688C124.682 69.2895 122.779 68.6956 120.489 68.0822L118.936 73.8778C121.126 74.4644 122.784 74.9905 123.953 75.4512L126.152 69.8688ZM120.47 68.0771C117.784 67.3765 115.723 66.7005 114.234 66.0626L111.871 71.5774C113.742 72.3795 116.121 73.1435 118.955 73.8829L120.47 68.0771ZM114.259 66.0731C113.104 65.5664 112.068 64.7676 111.147 63.6011L106.438 67.3189C107.917 69.1924 109.721 70.6336 111.847 71.5669L114.259 66.0731ZM111.2 63.6699C110.536 62.7772 110.053 61.3908 110.053 59.22H104.053C104.053 62.2492 104.729 65.0228 106.385 67.2501L111.2 63.6699ZM110.053 59.22C110.053 57.4768 110.487 56.0407 111.297 54.8109L106.288 51.5091C104.778 53.7993 104.053 56.4032 104.053 59.22H110.053ZM111.297 54.8109C112.123 53.5582 113.292 52.5506 114.91 51.8039L112.395 46.3561C109.853 47.5294 107.782 49.2418 106.288 51.5091L111.297 54.8109ZM114.89 51.8129C116.561 51.0562 118.548 50.64 120.913 50.64V44.64C117.837 44.64 114.984 45.1838 112.415 46.3471L114.89 51.8129ZM120.913 50.64C124.324 50.64 126.819 51.4848 128.652 52.9337L132.373 48.2263C129.246 45.7552 125.342 44.64 120.913 44.64V50.64ZM128.671 52.9481C130.527 54.3918 131.546 56.2351 131.787 58.6749L137.758 58.0851C137.359 54.0448 135.538 50.6882 132.354 48.2119L128.671 52.9481ZM134.773 55.38H128.773V61.38H134.773V55.38ZM131.749 58.0079C131.436 55.502 130.107 53.4429 128.142 51.8497L124.363 56.5103C125.358 57.3171 125.709 58.058 125.796 58.7521L131.749 58.0079ZM128.179 51.8804C126.029 50.079 123.327 49.32 120.373 49.32V55.32C122.299 55.32 123.516 55.801 124.326 56.4796L128.179 51.8804ZM120.373 49.32C117.548 49.32 114.961 50.0746 112.872 51.8153L116.713 56.4247C117.504 55.7654 118.637 55.32 120.373 55.32V49.32ZM112.911 51.7837C110.655 53.6009 109.633 56.1619 109.633 59.04H115.633C115.633 57.6781 116.05 56.9591 116.675 56.4563L112.911 51.7837ZM109.633 59.04C109.633 61.1403 110.228 63.1277 111.635 64.7355L116.15 60.7845C115.877 60.4723 115.633 59.9797 115.633 59.04H109.633ZM111.681 64.7872C112.864 66.0772 114.286 67.0646 115.912 67.7466L118.233 62.2134C117.379 61.8554 116.682 61.3628 116.104 60.7328L111.681 64.7872ZM116.019 67.789C117.416 68.3128 119.29 68.8994 121.602 69.5484L123.223 63.7716C120.975 63.1406 119.289 62.6072 118.126 62.171L116.019 67.789ZM121.616 69.5523C124.298 70.2909 126.354 71.0027 127.836 71.6733L130.309 66.2067C128.432 65.3573 126.047 64.5491 123.209 63.7677L121.616 69.5523ZM127.891 71.6974C129.063 72.1999 130.103 73.0036 131.015 74.1891L135.77 70.5309C134.282 68.5964 132.442 67.1201 130.254 66.1826L127.891 71.6974ZM131.038 74.2189C131.691 75.046 132.193 76.3916 132.193 78.6H138.193C138.193 75.5284 137.494 72.714 135.747 70.5011L131.038 74.2189ZM132.193 78.6C132.193 80.08 131.809 81.4686 131 82.8165L136.145 85.9035C137.496 83.6514 138.193 81.2 138.193 78.6H132.193ZM131 82.8165C130.24 84.0831 129.077 85.1861 127.371 86.0874L130.174 91.3926C132.708 90.0539 134.745 88.2369 136.145 85.9035L131 82.8165ZM127.371 86.0874C125.762 86.9376 123.762 87.42 121.273 87.42V93.42C124.543 93.42 127.543 92.7824 130.174 91.3926L127.371 86.0874Z" fill="#5FD3A3"/>
<path d="M153.697 34.18V76H148.237V34.18H153.697Z" fill="#5FD3A3"/>
<path d="M153.697 34.18H156.697V31.18H153.697V34.18ZM153.697 76V79H156.697V76H153.697ZM148.237 76H145.237V79H148.237V76ZM148.237 34.18V31.18H145.237V34.18H148.237ZM150.697 34.18V76H156.697V34.18H150.697ZM153.697 73H148.237V79H153.697V73ZM151.237 76V34.18H145.237V76H151.237ZM148.237 37.18H153.697V31.18H148.237V37.18Z" fill="#5FD3A3"/>
<path fill-rule="evenodd" clip-rule="evenodd" d="M58 63.5C58 70.9558 52.8513 77 46.5 77C40.1487 77 35 70.9558 35 63.5C35 56.0442 40.1487 50 46.5 50C48.1909 50 49.7966 50.4284 51.2426 51.1978C49.3692 51.8024 48 53.7235 48 56C48 58.7614 50.0147 61 52.5 61C54.5199 61 56.229 59.5213 56.7982 57.4849C57.5674 59.2961 58 61.3387 58 63.5ZM45.5 61C46.3284 61 47 60.3284 47 59.5C47 58.6716 46.3284 58 45.5 58C44.6716 58 44 58.6716 44 59.5C44 60.3284 44.6716 61 45.5 61Z" fill="#D35F8F" fill-opacity="0.66"/>
<path d="M54 72C54 74.7614 50.866 77 47 77C43.134 77 40 74.7614 40 72C40 69.2386 43.134 67 47 67C50.866 67 54 69.2386 54 72Z" fill="#D35F8F" fill-opacity="0.66"/>
</svg>
